<svg width="17" height="16" viewBox="0 0 17 16" fill="none" xmlns="http://www.w3.org/2000/svg">
<g clip-path="url(#clip0_1497_729)">
<path d="M7.1665 4.66683C7.1665 4.31321 7.30698 3.97407 7.55703 3.72402C7.80708 3.47397 8.14622 3.3335 8.49984 3.3335H12.4998C12.8535 3.3335 13.1926 3.47397 13.4426 3.72402C13.6927 3.97407 13.8332 4.31321 13.8332 4.66683V11.3335C13.8332 11.6871 13.6927 12.0263 13.4426 12.2763C13.1926 12.5264 12.8535 12.6668 12.4998 12.6668H8.49984C8.14622 12.6668 7.80708 12.5264 7.55703 12.2763C7.30698 12.0263 7.1665 11.6871 7.1665 11.3335V4.66683Z" stroke="#79747E" stroke-width="1.41" stroke-linecap="round" stroke-linejoin="round"/>
<path d="M5.1665 4.6665V11.3332" stroke="#79747E" stroke-width="1.41" stroke-linecap="round" stroke-linejoin="round"/>
<path d="M3.1665 5.3335V10.6668" stroke="#79747E" stroke-width="1.41" stroke-linecap="round" stroke-linejoin="round"/>
</g>
<defs>
<clipPath id="clip0_1497_729">
<rect width="16" height="16" fill="white" transform="translate(0.5)"/>
</clipPath>
</defs>
</svg>
