<svg width="24" height="24" viewBox="0 0 24 24" fill="none" xmlns="http://www.w3.org/2000/svg">
<path d="M10.4059 3.3277C10.5969 3.3277 10.78 3.25184 10.915 3.11681C11.0501 2.98179 11.1259 2.79865 11.1259 2.6077C11.1259 2.41674 11.0501 2.2336 10.915 2.09858C10.78 1.96355 10.5969 1.8877 10.4059 1.8877H4.88953C3.16633 1.8877 1.76953 3.2845 1.76953 5.0077V18.9908C1.76953 20.714 3.16633 22.1108 4.88953 22.1108H10.4059C10.5969 22.1108 10.78 22.035 10.915 21.8999C11.0501 21.7649 11.1259 21.5818 11.1259 21.3908C11.1259 21.1999 11.0501 21.0167 10.915 20.8817C10.78 20.7467 10.5969 20.6708 10.4059 20.6708H4.88953C4.44397 20.6708 4.01665 20.4938 3.70159 20.1788C3.38653 19.8637 3.20953 19.4364 3.20953 18.9908V5.0077C3.20953 4.56213 3.38653 4.13482 3.70159 3.81976C4.01665 3.50469 4.44397 3.3277 4.88953 3.3277H10.4059Z" fill="#212121"/>
<path d="M17.2853 6.44137C17.1502 6.30633 16.9671 6.23047 16.7761 6.23047C16.5851 6.23047 16.402 6.30633 16.267 6.44137C16.1319 6.57641 16.0561 6.75956 16.0561 6.95053C16.0561 7.1415 16.1319 7.32465 16.267 7.45969L19.831 11.0237H6.71951C6.52856 11.0237 6.34542 11.0995 6.2104 11.2346C6.07537 11.3696 5.99951 11.5527 5.99951 11.7437C5.99951 11.9346 6.07537 12.1178 6.2104 12.2528C6.34542 12.3878 6.52856 12.4637 6.71951 12.4637H19.7818L16.2672 15.978C16.2003 16.0449 16.1473 16.1243 16.1111 16.2116C16.0749 16.299 16.0563 16.3926 16.0563 16.4872C16.0563 16.5817 16.0749 16.6754 16.1111 16.7627C16.1473 16.8501 16.2003 16.9295 16.2672 16.9963C16.3341 17.0632 16.4134 17.1162 16.5008 17.1524C16.5882 17.1886 16.6818 17.2072 16.7764 17.2072C16.8709 17.2072 16.9645 17.1886 17.0519 17.1524C17.1393 17.1162 17.2186 17.0632 17.2855 16.9963L22.0195 12.2623C22.0865 12.1955 22.1396 12.1161 22.1758 12.0286C22.2119 11.9412 22.2304 11.8474 22.2302 11.7528V11.7437C22.2302 11.7329 22.2302 11.7223 22.2298 11.7118C22.2336 11.6127 22.2169 11.5139 22.1807 11.4215C22.1444 11.3292 22.0895 11.2454 22.0193 11.1754L17.2853 6.44137Z" fill="#212121"/>
</svg>
