<svg width="24" height="24" viewBox="0 0 24 24" fill="none" xmlns="http://www.w3.org/2000/svg">
<g clip-path="url(#clip0_1498_219)">
<mask id="mask0_1498_219" style="mask-type:luminance" maskUnits="userSpaceOnUse" x="-1" y="0" width="25" height="25">
<path d="M-0.370117 0.00203323H23.6298V24.002H-0.370117V0.00203323Z" fill="white"/>
</mask>
<g mask="url(#mask0_1498_219)">
<path d="M11.6361 8.33011C9.59957 8.33011 7.94859 9.98104 7.94859 12.0176C7.94859 14.0541 9.59957 15.7051 11.6361 15.7051C13.6726 15.7051 15.3236 14.0541 15.3236 12.0176C15.3236 9.98104 13.6726 8.33011 11.6361 8.33011ZM21.9862 9.3862L20.9878 10.2081C19.8489 11.1456 19.8489 12.8895 20.9878 13.8271L21.9862 14.649C22.34 14.9403 22.4313 15.4446 22.2022 15.8415L20.2308 19.2561C20.0016 19.653 19.5191 19.8261 19.09 19.6653L17.879 19.2116C16.4976 18.6941 14.9874 19.5661 14.7448 21.0211L14.5323 22.2967C14.4569 22.7487 14.0658 23.0801 13.6076 23.0801H9.66463C9.20638 23.0801 8.81526 22.7487 8.73993 22.2967L8.52731 21.0211C8.28482 19.5661 6.77456 18.6941 5.3932 19.2116L4.18224 19.6653C3.75305 19.8261 3.27057 19.653 3.0414 19.2561L1.06998 15.8415C0.840857 15.4446 0.932215 14.9403 1.28603 14.649L2.28446 13.8271C3.42329 12.8895 3.42329 11.1456 2.28446 10.2081L1.28603 9.3862C0.932215 9.09492 0.840857 8.59054 1.06998 8.19365L3.0414 4.77906C3.27057 4.38217 3.75305 4.2091 4.18224 4.36989L5.3932 4.82354C6.77456 5.34104 8.28482 4.46912 8.52731 3.01408L8.73993 1.73847C8.81526 1.28646 9.20638 0.955145 9.66463 0.955145H13.6076C14.0658 0.955145 14.4569 1.28646 14.5323 1.73847L14.7448 3.01408C14.9874 4.46912 16.4976 5.34104 17.879 4.82354L19.09 4.36989C19.5191 4.2091 20.0016 4.38217 20.2308 4.77906L22.2022 8.19365C22.4313 8.59054 22.34 9.09492 21.9862 9.3862Z" stroke="#212121" stroke-width="1.5" stroke-miterlimit="10" stroke-linecap="round" stroke-linejoin="round"/>
</g>
</g>
<defs>
<clipPath id="clip0_1498_219">
<rect width="24" height="24" fill="white"/>
</clipPath>
</defs>
</svg>
